<svg xmlns="http://www.w3.org/2000/svg" viewBox="0 0 800 450">
  <defs>
    <linearGradient id="sky" x1="0" y1="0" x2="0" y2="1">
      <stop offset="0" stop-color="#2a3438"/><stop offset="1" stop-color="#1a2124"/>
    </linearGradient>
    <filter id="grain"><feTurbulence type="fractalNoise" baseFrequency="0.9" numOctaves="2" seed="84"/><feColorMatrix type="saturate" values="0"/><feComponentTransfer><feFuncA type="linear" slope="0.06"/></feComponentTransfer><feComposite operator="over" in2="SourceGraphic"/></filter>
  </defs>
  <rect width="800" height="450" fill="url(#sky)"/>
  <rect y="274.054629330989" width="800" height="175.94537066901103" fill="#141c1e"/>
  <rect y="248.05462933098897" width="800" height="52" fill="#8a9a96" opacity="0.10"/>
  <rect y="266.054629330989" width="800" height="16" fill="#8a9a96" opacity="0.14"/>
  <g fill="rgba(6,8,9,0.88)"><ellipse cx="216.62370482087138" cy="300.6313348794356" rx="13" ry="15"/><path d="M199.62370482087138 405 L204.62370482087138 312.6313348794356 L228.62370482087138 312.6313348794356 L233.62370482087138 405 Z"/><ellipse cx="406.3643639013171" cy="296.37317165499553" rx="13" ry="15"/><path d="M389.3643639013171 405 L394.3643639013171 308.37317165499553 L418.3643639013171 308.37317165499553 L423.3643639013171 405 Z"/><ellipse cx="568.0241060592234" cy="294.6851741359569" rx="13" ry="15"/><path d="M551.0241060592234 405 L556.0241060592234 306.6851741359569 L580.0241060592234 306.6851741359569 L585.0241060592234 405 Z"/><rect x="769.1415700316429" y="356.3299595224671" width="15.718456238508224" height="48.67004047753289" rx="4" transform="rotate(-3.935465916991234 769.1415700316429 405)"/><rect x="89.39202040433884" y="389.39616982266307" width="13.155935615301132" height="15.603830177336931" rx="4" transform="rotate(-1.740141037851572 89.39202040433884 405)"/><rect x="31.480600172653794" y="377.2796955932863" width="18.819933228194714" height="27.720304406713694" rx="4" transform="rotate(2.849367793649435 31.480600172653794 405)"/><rect x="97.08180523943156" y="373.97676193807274" width="19.2776037491858" height="31.02323806192726" rx="4" transform="rotate(3.8100359216332436 97.08180523943156 405)"/></g>
  <rect width="800" height="450" fill="transparent" filter="url(#grain)"/>
  <rect width="800" height="450" fill="none" stroke="rgba(0,0,0,0.6)" stroke-width="6"/>
</svg>
