<svg xmlns="http://www.w3.org/2000/svg" viewBox="0 0 800 450">
  <defs>
    <linearGradient id="sky" x1="0" y1="0" x2="0" y2="1">
      <stop offset="0" stop-color="#2a3438"/><stop offset="1" stop-color="#1a2124"/>
    </linearGradient>
    <filter id="grain"><feTurbulence type="fractalNoise" baseFrequency="0.9" numOctaves="2" seed="72"/><feColorMatrix type="saturate" values="0"/><feComponentTransfer><feFuncA type="linear" slope="0.06"/></feComponentTransfer><feComposite operator="over" in2="SourceGraphic"/></filter>
  </defs>
  <rect width="800" height="450" fill="url(#sky)"/>
  <rect y="267.9513047109358" width="800" height="182.0486952890642" fill="#141c1e"/>
  <rect y="241.9513047109358" width="800" height="52" fill="#8a9a96" opacity="0.10"/>
  <rect y="259.9513047109358" width="800" height="16" fill="#8a9a96" opacity="0.14"/>
  <g fill="rgba(6,8,9,0.88)"><rect x="40.677268761210144" y="237.15900094248354" width="26" height="167.84099905751646"/><rect x="32.677268761210144" y="225.15900094248354" width="42" height="12"/><rect x="169.12229326553643" y="249.3295943364501" width="26" height="155.6704056635499"/><rect x="161.12229326553643" y="237.3295943364501" width="42" height="12"/><rect x="260.8830516273156" y="166.10081216320395" width="26" height="238.89918783679605"/><rect x="252.88305162731558" y="154.10081216320395" width="42" height="12"/><rect x="388.6817843466997" y="155.47702772542834" width="26" height="249.52297227457166"/><rect x="380.6817843466997" y="143.47702772542834" width="42" height="12"/><rect x="498.97857582196593" y="214.84425008296967" width="26" height="190.15574991703033"/><rect x="490.97857582196593" y="202.84425008296967" width="42" height="12"/><rect x="602.9969318537042" y="140.81492121331394" width="26" height="264.18507878668606"/><rect x="594.9969318537042" y="128.81492121331394" width="42" height="12"/><rect x="707.0615778630599" y="181.9854442588985" width="26" height="223.0145557411015"/><rect x="699.0615778630599" y="169.9854442588985" width="42" height="12"/></g>
  <rect width="800" height="450" fill="transparent" filter="url(#grain)"/>
  <rect width="800" height="450" fill="none" stroke="rgba(0,0,0,0.6)" stroke-width="6"/>
</svg>
