<svg xmlns="http://www.w3.org/2000/svg" viewBox="0 0 800 450">
  <defs>
    <linearGradient id="sky" x1="0" y1="0" x2="0" y2="1">
      <stop offset="0" stop-color="#2a3438"/><stop offset="1" stop-color="#1a2124"/>
    </linearGradient>
    <filter id="grain"><feTurbulence type="fractalNoise" baseFrequency="0.9" numOctaves="2" seed="49"/><feColorMatrix type="saturate" values="0"/><feComponentTransfer><feFuncA type="linear" slope="0.06"/></feComponentTransfer><feComposite operator="over" in2="SourceGraphic"/></filter>
  </defs>
  <rect width="800" height="450" fill="url(#sky)"/>
  <rect y="260.21760305855423" width="800" height="189.78239694144577" fill="#141c1e"/>
  <rect y="234.21760305855423" width="800" height="52" fill="#8a9a96" opacity="0.10"/>
  <rect y="252.21760305855423" width="800" height="16" fill="#8a9a96" opacity="0.14"/>
  <g fill="rgba(6,8,9,0.88)"><path d="M0 450 L0 279 L57.249062629416585 249.79885241691954 L114.49812525883317 282.972462171223 L137.82725437544286 236.85592202679254 L161.15638349205256 285.90886661736295 L204.23995727673173 255.90057645901106 L247.3235310614109 272.3735232613981 L300.13748835772276 260.3141510798596 L352.9514456540346 281.109295880422 L392.441924829036 245.8031928432174 L431.9324040040374 285.7694545695558 L458.01077403128147 239.11215841048397 L484.08914405852556 285.8009344758466 L509.57991452887654 267.7397879746277 L535.0706849992275 277.32885576505214 L569.6884223073721 235.0604888026137 L604.3061596155167 283.50538395438343 L646.057148212567 261.0553372427821 L687.8081368096173 272.07871590415016 L722.8628785256296 237.2273883058224 L757.917620241642 272.40446975873783 L780.9790989197791 253.1268182382919 L804.0405775979161 277.838341943454 L800 450 Z"/></g>
  <rect width="800" height="450" fill="transparent" filter="url(#grain)"/>
  <rect width="800" height="450" fill="none" stroke="rgba(0,0,0,0.6)" stroke-width="6"/>
</svg>
